<svg xmlns="http://www.w3.org/2000/svg" viewBox="0 0 321.58022 47.28034"><defs><style>.cls-1{fill:#dfd7bf;}.cls-2{fill:none;stroke:#dfd7bf;stroke-miterlimit:10;stroke-width:1.21846px;}</style></defs><g id="Layer_2" data-name="Layer 2"><g id="Layer_1-2" data-name="Layer 1"><path class="cls-1" d="M31.21875,37.03125l-.53125,7.1875a37.50366,37.50366,0,0,1-8.75,1.0625q-10.719,0-16.32812-5.92187A20.1561,20.1561,0,0,1,0,24.96875,21.8916,21.8916,0,0,1,5.95312,9.6875q5.95314-6.49951,16.32813-6.5A28.93408,28.93408,0,0,1,29.5,4.0625l-1.09375,7.21875a23.03,23.03,0,0,0-7.0625-1.1875q-6.34423,0-9.4375,4.01563A15.52493,15.52493,0,0,0,8.8125,23.875a15.211,15.211,0,0,0,3.67188,10.1875Q16.156,38.375,22.78125,38.375A30.0133,30.0133,0,0,0,31.21875,37.03125Z"/><path class="cls-1" d="M63.36963,44.4375h-8.3125q.687-7.90577.6875-15.375,0-5.562-1.40625-7.29688-1.40625-1.73436-4.625-1.73437a11.606,11.606,0,0,0-6.6875,2.28125q0,13.28173.3125,22.125h-8.3125q.3435-9.687.34375-23.21875A183.03884,183.03884,0,0,0,34.40088.5L43.24463,0q-.46875,10.06275-.46875,17.5h.40625a13.57072,13.57072,0,0,1,9.4375-3.78125q5.031,0,7.89062,2.28125,2.85938,2.2815,2.85938,8.03125,0,.594-.07813,2.42187-.07836,1.82814-.07812,2.42188Q63.21338,34.09423,63.36963,44.4375Z"/><path class="cls-1" d="M86.8893,15.00532l-1.8125,7.3125a12.38231,12.38231,0,0,0-4.6875-.9375,5.84641,5.84641,0,0,0-6.0625,4.125q0,12.46875.1875,19.1875H66.2018q.531-9.40576.53125-15.375a61.52668,61.52668,0,0,0-1.5625-14.09375l7.96875-.875q.531,3.438.53125,4.03125h.5a8.7692,8.7692,0,0,1,7.65625-4.40625A14.89221,14.89221,0,0,1,86.8893,15.00532Z"/><path class="cls-1" d="M175.49442,44.4375h-8.28125q.65625-7.90577.65625-15.375,0-5.5935-1.4375-7.3125a5.66382,5.66382,0,0,0-4.59375-1.71875,9.82959,9.82959,0,0,0-5.34375,1.84375q-.12523,3.90673-.125,7,0,5.21923.1875,15.5625h-8.375q.687-8.562.6875-16.65625,0-4.18725-1.17187-5.96875-1.17187-1.78125-4.85938-1.78125a7.61624,7.61624,0,0,0-5.65625,2.28125q.156,12.375.15625,22.125h-8.40625q.5625-9.75.5625-15.375a63.82153,63.82153,0,0,0-1.53125-14.09375l8-.875.53125,3.3125h.5a13.27181,13.27181,0,0,1,9.15625-3.6875q6.375,0,8.96875,3.6875h.5q4.62452-3.687,9.15625-3.6875,5.31227,0,8.01563,2.29687,2.70264,2.29689,2.70312,8.32813,0,.594-.0625,2.26563-.063,1.67211-.0625,2.26562Q175.36942,34.09423,175.49442,44.4375Z"/><path class="cls-1" d="M206.48124,44.40625l-7.375.25a6.7336,6.7336,0,0,1-.5-2.375H198.2q-3.438,2.93775-9.28125,2.9375a9.71867,9.71867,0,0,1-6.48437-2.17187,7.16184,7.16184,0,0,1-2.57813-5.76563A9.34034,9.34034,0,0,1,183.87187,29.5Q187.887,26.46923,197.95,26.28125a9.80266,9.80266,0,0,0,.0625-1.0625q0-3.375-1.625-4.45313-1.626-1.07811-5.96875-1.07812a34.29381,34.29381,0,0,0-9.21875,1.25l.6875-5.75q4.24951-1.4685,12-1.46875,5.65576,0,8.73438,2.375Q205.6995,18.469,205.7,24.40625q0,1.3125-.10937,4.78125-.10987,3.46875-.10938,4.625A46.18532,46.18532,0,0,0,206.48124,44.40625Zm-8.34375-6.5Q197.95,33.6875,197.95,30.625q-10.65674,0-10.65625,5.40625,0,3.71923,4.6875,3.71875A10.00073,10.00073,0,0,0,198.13749,37.90625Z"/><path class="cls-1" d="M234.05483,37.875l-.53125,5.96875a16.665,16.665,0,0,1-7.71875,1.5q-8.0625,0-12.39063-4.5a15.04025,15.04025,0,0,1-4.32812-10.8125,16.31033,16.31033,0,0,1,4.53125-11.45313q4.53077-4.89037,12.40625-4.89062a24.48,24.48,0,0,1,6.84375.875l-1.0625,6.375a16.72254,16.72254,0,0,0-6.4375-1.1875,7.30035,7.30035,0,0,0-5.96875,2.67188A10.04074,10.04074,0,0,0,217.21108,29a10.47144,10.47144,0,0,0,2.59375,7.1875,9.27811,9.27811,0,0,0,7.34375,2.9375A24.68441,24.68441,0,0,0,234.05483,37.875Z"/><path class="cls-1" d="M265.64565,44.40625l-7.3125.25a10.03188,10.03188,0,0,1-.5-2.6875h-.5a14.57971,14.57971,0,0,1-9.5625,3.375q-5.15625,0-7.76563-2.70313-2.61034-2.70262-2.60937-10.79687,0-.96827.04687-2.71875.04688-1.74975.04688-3.0625,0-3.46875-.59375-11.0625l8.71875-.3125q-.501,6-.5,11.375,0,7.65673,1.14062,10.3125,1.13966,2.6565,4.48438,2.65625a11.21068,11.21068,0,0,0,6.3125-1.75q0-16.437-.375-22.3125l8.4375-.28125q-.31347,5.90625-.3125,15.3125A127.83194,127.83194,0,0,0,265.64565,44.40625Z"/><path class="cls-1" d="M291.99331,14.75l-1.8125,7.3125a12.38231,12.38231,0,0,0-4.6875-.9375,5.846,5.846,0,0,0-6.0625,4.125q0,12.46875.1875,19.1875h-8.3125q.53026-9.40577.53125-15.375a61.55393,61.55393,0,0,0-1.5625-14.09375l7.96875-.875q.53026,3.438.53125,4.03125h.5a8.76864,8.76864,0,0,1,7.65625-4.40625A14.89221,14.89221,0,0,1,291.99331,14.75Z"/><path class="cls-1" d="M321.58022,26.40625q0,1.59375-.1875,4.15625l-20.125.34375a9.18246,9.18246,0,0,0,3.03125,5.875,9.77112,9.77112,0,0,0,6.8125,2.34375,38.80783,38.80783,0,0,0,9.96875-1.40625l-.625,6.0625a31.64086,31.64086,0,0,1-10.6875,1.5625q-8.0625,0-12.35938-4.53125a15.28094,15.28094,0,0,1-4.29687-10.90625,17.46521,17.46521,0,0,1,4.07812-11.54687q4.07813-4.89039,11.32813-4.89063,6.624,0,9.84375,3.59375A13.47778,13.47778,0,0,1,321.58022,26.40625Zm-7.3125-.28125q0-7.18725-6.125-7.1875-5.84472,0-6.9375,7.4375Z"/><polygon class="cls-2" points="116.625 8.942 96.457 8.942 86.372 26.408 96.457 43.875 116.625 43.875 126.71 26.408 116.625 8.942"/><polygon class="cls-2" points="89.074 16.324 89.074 36.493 106.541 46.577 124.008 36.493 124.008 16.324 106.541 6.24 89.074 16.324"/><circle class="cls-2" cx="106.53564" cy="26.40821" r="11.25592"/></g></g></svg>